<svg data-v-423bf9ae="" xmlns="http://www.w3.org/2000/svg" viewBox="0 0 129.0077746267484 60" class="font"><!----><!----><defs data-v-423bf9ae=""><linearGradient data-v-423bf9ae="" gradientTransform="rotate(25)" id="79852d47-8ab5-4fbe-8abc-63faeda996f1" x1="0%" y1="0%" x2="100%" y2="0%"><stop data-v-423bf9ae="" offset="0%" style="stop-color: rgb(105, 63, 36); stop-opacity: 1;"></stop><stop data-v-423bf9ae="" offset="100%" style="stop-color: rgb(156, 146, 137); stop-opacity: 1;"></stop></linearGradient></defs><g data-v-423bf9ae="" id="42022a68-967c-4eb8-8ea9-0be72d4d2ade" fill="url(#79852d47-8ab5-4fbe-8abc-63faeda996f1)" transform="matrix(5.1768769755932595,0,0,5.1768769755932595,-0.46591827851517564,-28.265748007384225)"><path d="M0.32 12.38L0.83 8.35L1.02 6.59L0.09 6.40L0.16 5.90L2.07 5.74L2.17 5.89L1.67 10.14L1.40 12.67Q1.38 12.91 1.38 13.11L1.38 13.11Q1.38 13.57 1.61 13.57L1.61 13.57Q1.84 13.57 2.17 13.33L2.17 13.33Q2.50 13.10 2.71 12.71L2.71 12.71L3.00 12.92Q2.39 14.56 0.92 14.56L0.92 14.56Q0.21 14.56 0.21 13.58L0.21 13.58Q0.21 13.17 0.32 12.38L0.32 12.38ZM4.74 9.39L4.74 9.39Q4.19 10.01 4.19 11.25L4.19 11.25Q4.19 12.63 4.82 13.40L4.82 13.40Q5.14 13.79 5.50 13.78L5.50 13.78Q5.89 13.77 6.18 13.45L6.18 13.45Q6.75 12.78 6.75 11.50L6.75 11.50Q6.75 10.14 6.15 9.41L6.15 9.41Q5.84 9.05 5.45 9.04L5.45 9.04Q5.07 9.03 4.74 9.39ZM3.71 13.86L3.71 13.86Q3.23 13.15 3.23 12.07L3.23 12.07Q3.23 11.02 3.59 10.16L3.59 10.16Q3.95 9.29 4.57 8.79L4.57 8.79Q5.20 8.28 5.94 8.28Q6.69 8.28 7.21 8.97L7.21 8.97Q7.73 9.65 7.73 10.66L7.73 10.66Q7.73 11.67 7.42 12.52Q7.10 13.38 6.48 13.98L6.48 13.98Q5.87 14.57 5.04 14.57L5.04 14.57Q4.20 14.57 3.71 13.86ZM10.40 9.24L10.40 9.24Q10.18 9.74 10.17 10.34L10.17 10.34Q10.15 10.95 10.19 11.18L10.19 11.18Q10.24 11.44 10.36 11.66L10.36 11.66Q10.58 12.01 10.82 12.01L10.82 12.01Q11.07 12.01 11.29 11.85L11.29 11.85Q11.81 11.40 11.81 10.40L11.81 10.40Q11.81 9.99 11.70 9.62L11.70 9.62Q11.58 9.21 11.39 9.00Q11.20 8.80 10.95 8.80L10.95 8.80Q10.76 8.80 10.62 8.93L10.62 8.93Q10.49 9.04 10.40 9.24ZM10.08 13.00L10.08 13.00Q10.08 13.07 10.21 13.11L10.21 13.11L10.53 13.23Q11.87 13.75 11.93 13.77L11.93 13.77Q12.86 14.18 13.18 14.78L13.18 14.78Q13.32 15.01 13.32 15.33L13.32 15.33Q13.32 15.35 13.30 15.56L13.30 15.56Q13.18 16.19 12.43 16.60L12.43 16.60Q11.67 17.01 10.75 17.05L10.75 17.05L10.58 17.05Q9.99 17.05 9.49 16.92L9.49 16.92Q8.91 16.77 8.71 16.66L8.71 16.66Q8.42 16.51 8.20 16.26L8.20 16.26Q7.96 15.98 7.96 15.58Q7.96 15.18 8.21 14.89L8.21 14.89Q8.45 14.62 9.03 14.34L9.03 14.34Q9.11 14.29 9.70 14.06L9.70 14.06Q9.30 13.88 9.20 13.75L9.20 13.75Q9.11 13.62 9.11 13.50L9.11 13.50Q9.11 13.36 9.12 13.32L9.12 13.32Q9.14 13.25 9.27 13.06L9.27 13.06Q9.41 12.85 9.64 12.65L9.64 12.65Q9.89 12.43 10.01 12.35L10.01 12.35Q9.88 12.27 9.69 12.10L9.69 12.10Q9.24 11.62 9.20 10.88L9.20 10.88L9.20 10.81Q9.20 10.31 9.41 9.82L9.41 9.82Q9.63 9.30 9.98 8.91L9.98 8.91Q10.58 8.28 11.24 8.28Q11.89 8.28 12.28 8.76L12.28 8.76Q12.91 8.27 13.34 8.28L13.34 8.28L13.47 8.29Q13.67 8.33 13.80 8.48L13.80 8.48Q13.92 8.63 13.92 8.81L13.92 8.81L13.92 8.85Q13.90 8.87 13.92 8.89L13.92 8.89Q13.84 9.31 13.38 9.60L13.38 9.60Q13.01 9.28 12.84 9.16L12.84 9.16Q12.69 9.06 12.48 9.06L12.48 9.06Q12.70 9.50 12.71 10.14L12.71 10.14Q12.71 11.07 12.10 11.76L12.10 11.76Q11.87 12.01 11.53 12.22L11.53 12.22Q11.03 12.51 10.60 12.50L10.60 12.50Q10.45 12.50 10.43 12.49L10.43 12.49Q10.19 12.69 10.10 12.93L10.10 12.93L10.10 12.95Q10.08 12.97 10.08 13.00ZM10.45 14.35L10.17 14.24Q9.53 14.47 9.29 14.81Q9.05 15.14 9.05 15.48L9.05 15.48Q9.05 15.61 9.13 15.80L9.13 15.80Q9.30 16.14 9.62 16.30L9.62 16.30Q10.16 16.57 10.89 16.56L10.89 16.56L11.08 16.56Q11.57 16.56 11.89 16.31L11.89 16.31Q12.20 16.04 12.20 15.61Q12.19 15.17 11.73 14.90L11.73 14.90Q11.41 14.71 11.08 14.59L11.08 14.59Q10.83 14.51 10.68 14.45L10.68 14.45Q10.65 14.44 10.45 14.35L10.45 14.35ZM16.66 10.51L16.47 12.66Q16.43 12.91 16.43 13.16L16.43 13.16Q16.43 13.56 16.67 13.56L16.67 13.56Q16.91 13.56 17.23 13.32L17.23 13.32Q17.56 13.08 17.76 12.71L17.76 12.71L18.05 12.91Q17.43 14.55 16.08 14.55L16.08 14.55Q15.65 14.55 15.48 14.29L15.48 14.29Q15.31 14.04 15.31 13.66L15.31 13.66Q15.31 13.24 15.39 12.37L15.39 12.37L15.64 10.22Q15.76 9.19 15.42 9.28L15.42 9.28Q15.11 9.35 14.47 10.30L14.47 10.30L14.14 10.08Q14.26 9.78 14.45 9.46Q14.64 9.15 14.90 8.86Q15.16 8.57 15.49 8.38Q15.82 8.20 16.15 8.20L16.15 8.20Q16.30 8.20 16.40 8.24Q16.51 8.28 16.58 8.36Q16.65 8.44 16.69 8.53Q16.74 8.62 16.76 8.77Q16.78 8.92 16.78 9.05Q16.78 9.17 16.77 9.38Q16.75 9.58 16.74 9.73Q16.73 9.87 16.70 10.11Q16.67 10.36 16.66 10.51L16.66 10.51ZM16.91 5.66L16.91 5.66Q17.08 5.86 17.08 6.17L17.08 6.17Q17.08 6.49 16.85 6.75L16.85 6.75Q16.63 7.01 16.33 7.01L16.33 7.01Q16.04 7.01 15.88 6.82L15.88 6.82Q15.71 6.63 15.71 6.33L15.71 6.33Q15.71 6.02 15.94 5.74L15.94 5.74Q16.17 5.46 16.45 5.46L16.45 5.46Q16.73 5.46 16.91 5.66ZM20.60 12.04L20.60 12.04Q20.56 13.47 20.30 14.01L20.30 14.01Q20.04 14.59 19.43 14.59L19.43 14.59Q19.39 14.59 19.15 14.56L19.15 14.56L19.05 14.38L19.61 11.74L19.76 10.16Q19.78 9.87 19.78 9.64L19.78 9.64Q19.78 9.39 19.72 9.26Q19.66 9.14 19.53 9.15L19.53 9.15Q19.41 9.15 19.11 9.49Q18.81 9.83 18.59 10.21L18.59 10.21L18.27 9.95Q18.53 9.22 19.13 8.65L19.13 8.65Q19.71 8.09 20.32 8.09L20.32 8.09Q20.86 8.09 20.84 8.80L20.84 8.80Q20.84 9.13 20.75 9.52L20.75 9.52Q20.69 9.81 20.63 10.11L20.63 10.11Q20.55 10.47 20.56 10.48L20.56 10.48L20.64 10.52Q20.95 9.58 21.55 8.92L21.55 8.92Q22.16 8.26 22.70 8.26Q23.25 8.26 23.52 8.54L23.52 8.54Q23.78 8.82 23.78 9.27L23.78 9.27Q23.78 9.71 23.72 10.19L23.72 10.19L23.42 12.67Q23.39 12.91 23.39 13.16L23.39 13.16Q23.39 13.57 23.62 13.57L23.62 13.57Q23.84 13.57 24.18 13.33L24.18 13.33Q24.51 13.10 24.71 12.71L24.71 12.71L25.01 12.92Q24.39 14.56 22.93 14.56L22.93 14.56Q22.26 14.56 22.26 13.71L22.26 13.71Q22.26 13.59 22.40 12.38L22.40 12.38L22.56 11.06Q22.65 10.34 22.66 9.96L22.66 9.96Q22.66 9.71 22.57 9.58Q22.47 9.46 22.28 9.47L22.28 9.47Q21.21 9.47 20.60 12.04Z"></path></g><!----><!----></svg>