<svg data-v-fde0c5aa="" xmlns="http://www.w3.org/2000/svg" viewBox="0 0 300 300" class="iconLeft"><!----><defs data-v-fde0c5aa=""><!----></defs><rect data-v-fde0c5aa="" fill="#2B282C" x="0" y="0" width="300px" height="300px" class="logo-background-square"></rect><defs data-v-fde0c5aa=""><!----></defs><g data-v-fde0c5aa="" id="0ab6479f-2702-49e4-bc99-51cefe92f9a3" fill="#ffffff" transform="matrix(3.2477862940426734,0,0,3.2477862940426734,96.60387047426244,113.267535651552)"><path d="M0.38 11.66L0.38 11.66Q0.38 10.75 0.79 10.00Q1.19 9.24 1.84 8.82Q2.48 8.40 3.19 8.40L3.19 8.40Q3.96 8.40 4.48 8.67L4.48 8.67L4.96 8.49L5.09 8.49L5.09 16.50L6.19 16.63L6.14 16.91L3.34 16.91L3.37 16.65L4.40 16.50L4.40 9.48Q4.18 9.20 3.78 9.00Q3.38 8.80 2.85 8.80L2.85 8.80Q2.13 8.80 1.62 9.51Q1.10 10.21 1.10 11.24L1.10 11.24Q1.10 14.04 2.86 14.04L2.86 14.04Q3.19 14.04 3.57 13.95Q3.94 13.85 4.18 13.67L4.18 13.67L4.20 13.92Q3.89 14.22 3.43 14.38Q2.97 14.55 2.50 14.55L2.50 14.55Q1.54 14.55 0.96 13.84Q0.38 13.13 0.38 11.66ZM7.88 9.02L6.82 8.82L6.84 8.63L8.42 8.50L8.47 8.56L8.47 12.23Q8.47 13.99 9.75 13.99L9.75 13.99Q10.18 13.99 10.60 13.74Q11.03 13.48 11.31 13.15L11.31 13.15L11.31 9.02L10.25 8.82L10.26 8.63L11.88 8.50L11.93 8.56L11.93 12.82Q11.93 13.06 11.94 13.21Q11.94 13.35 11.98 13.52Q12.01 13.69 12.08 13.78Q12.14 13.87 12.26 13.95Q12.38 14.03 12.55 14.05L12.55 14.05L12.97 14.14L12.93 14.38Q12.61 14.52 12.24 14.52L12.24 14.52Q11.83 14.52 11.61 14.25Q11.38 13.98 11.38 13.60L11.38 13.60L11.38 13.49L11.31 13.49Q10.96 14 10.47 14.28Q9.98 14.56 9.47 14.56L9.47 14.56Q7.88 14.56 7.88 12.46L7.88 12.46L7.88 9.02ZM14.63 6.24L14.63 6.24Q14.63 5.58 15.05 5.58L15.05 5.58Q15.49 5.58 15.49 6.24L15.49 6.24Q15.49 6.94 15.06 6.94Q14.63 6.94 14.63 6.24ZM16.42 14.40L13.64 14.40L13.73 14.18L14.76 13.99L14.76 9.01L13.71 8.82L13.73 8.63L15.35 8.50L15.40 8.56L15.40 13.99L16.50 14.17L16.42 14.40ZM17.21 11.70L17.21 11.70Q17.21 10.20 17.93 9.31Q18.65 8.42 19.78 8.42L19.78 8.42Q20.57 8.42 20.93 8.76Q21.29 9.10 21.29 9.57L21.29 9.57Q21.29 10.08 20.84 10.21L20.84 10.21Q20.60 9.49 20.28 9.16Q19.97 8.84 19.45 8.84L19.45 8.84Q18.80 8.84 18.35 9.48Q17.90 10.12 17.90 11.30L17.90 11.30Q17.90 14.09 19.84 14.09L19.84 14.09Q20.31 14.09 20.74 13.89Q21.17 13.69 21.45 13.41L21.45 13.41L21.57 13.64Q21.32 14.03 20.74 14.31Q20.17 14.59 19.52 14.59L19.52 14.59Q18.42 14.59 17.81 13.78Q17.21 12.97 17.21 11.70ZM25.32 12.84L24.21 11.49L24.21 11.38L26.34 9.03L25.42 8.80L25.46 8.57L27.92 8.57L27.88 8.80L26.85 9.02L24.85 11.26L25.67 12.19Q25.83 12.37 26.12 12.71Q26.41 13.05 26.51 13.15Q26.61 13.25 26.80 13.46Q27.00 13.67 27.09 13.73Q27.19 13.79 27.35 13.89Q27.51 13.99 27.66 14.03Q27.80 14.06 27.99 14.08L27.99 14.08L28.25 14.11L28.21 14.40Q27.86 14.53 27.49 14.53L27.49 14.53Q26.99 14.53 26.61 14.23Q26.23 13.93 25.32 12.84L25.32 12.84ZM25.01 14.40L22.22 14.40L22.28 14.18L23.33 13.99L23.33 6.23L22.29 6.04L22.29 5.84L23.91 5.71L23.96 5.77L23.96 13.99L25.05 14.17L25.01 14.40ZM30.65 9.86L30.65 13.73Q31.06 14.14 32.04 14.14L32.04 14.14Q32.39 14.14 32.75 13.96Q33.11 13.78 33.40 13.47Q33.70 13.15 33.89 12.67Q34.07 12.19 34.07 11.63L34.07 11.63Q34.07 10.25 33.61 9.58Q33.15 8.91 32.18 8.91L32.18 8.91Q31.82 8.91 31.45 9.15Q31.08 9.39 30.65 9.86L30.65 9.86ZM30.00 6.26L28.94 6.05L28.98 5.84L30.61 5.71L30.65 5.77L30.65 8.76L30.54 9.47L30.63 9.47Q31.57 8.42 32.64 8.42L32.64 8.42Q33.63 8.42 34.20 9.19Q34.78 9.96 34.78 11.25L34.78 11.25Q34.78 12.04 34.52 12.68Q34.26 13.32 33.81 13.72Q33.37 14.13 32.78 14.35Q32.19 14.56 31.52 14.56L31.52 14.56Q31.07 14.56 30.73 14.44Q30.39 14.33 30.00 14.07L30.00 14.07L30.00 6.26ZM38.25 14.40L35.47 14.40L35.54 14.18L36.59 13.99L36.59 6.23L35.54 6.04L35.54 5.84L37.15 5.71L37.21 5.77L37.21 13.99L38.32 14.17L38.25 14.40ZM39.74 11.20L39.74 11.20Q39.74 12.44 40.32 13.29Q40.90 14.14 41.84 14.14L41.84 14.14Q42.57 14.14 43.03 13.44Q43.49 12.74 43.49 11.66L43.49 11.66Q43.49 10.94 43.25 10.30Q43.01 9.67 42.54 9.25Q42.07 8.84 41.47 8.84L41.47 8.84Q40.70 8.84 40.22 9.51Q39.74 10.19 39.74 11.20ZM39.03 11.69L39.03 11.69Q39.03 10.18 39.81 9.28Q40.58 8.39 41.77 8.39L41.77 8.39Q42.49 8.39 43.06 8.81Q43.62 9.23 43.91 9.92Q44.21 10.60 44.21 11.41L44.21 11.41Q44.21 12.81 43.44 13.70Q42.67 14.58 41.59 14.58L41.59 14.58Q40.48 14.58 39.75 13.79Q39.03 13.00 39.03 11.69ZM46.09 10.37L46.09 10.37Q46.09 11.02 46.47 11.56Q46.86 12.09 47.47 12.09L47.47 12.09Q47.95 12.09 48.29 11.71Q48.62 11.32 48.62 10.63L48.62 10.63Q48.62 9.84 48.27 9.29Q47.91 8.74 47.37 8.74L47.37 8.74Q46.72 8.74 46.40 9.19Q46.09 9.65 46.09 10.37ZM45.55 15.24L45.55 15.24Q45.55 16.58 47.54 16.58L47.54 16.58Q48.03 16.58 48.47 16.44Q48.90 16.30 49.20 16.00Q49.50 15.71 49.50 15.32L49.50 15.32Q49.50 14.78 49.16 14.48Q48.82 14.18 47.99 14.18L47.99 14.18L46.47 14.18Q46.44 14.20 46.37 14.22Q46.31 14.25 46.15 14.34Q45.99 14.43 45.87 14.54Q45.75 14.65 45.65 14.84Q45.55 15.03 45.55 15.24ZM44.89 15.55L44.89 15.55Q44.89 15.28 45.00 15.05Q45.12 14.81 45.33 14.64Q45.55 14.46 45.72 14.36Q45.88 14.25 46.12 14.13L46.12 14.13L46.12 14.10Q45.85 13.98 45.66 13.77Q45.47 13.57 45.47 13.30L45.47 13.30Q45.47 13.08 45.74 12.79Q46.01 12.50 46.40 12.23L46.40 12.23Q46.06 12.06 45.76 11.61Q45.46 11.16 45.46 10.53L45.46 10.53Q45.46 9.67 46.06 9.05Q46.66 8.43 47.53 8.43L47.53 8.43Q48.08 8.43 48.70 8.87L48.70 8.87L50.24 8.75L50.31 8.84L50.09 9.38L50.04 9.39L48.95 9.12L48.92 9.15Q49.02 9.30 49.15 9.71Q49.27 10.12 49.27 10.46L49.27 10.46Q49.27 11.27 48.65 11.87Q48.04 12.48 47.28 12.48L47.28 12.48Q46.89 12.48 46.63 12.35L46.63 12.35Q46.26 12.67 46.17 12.80Q46.08 12.93 46.08 13.06L46.08 13.06Q46.08 13.62 47.15 13.62L47.15 13.62L48.10 13.62Q49.10 13.62 49.60 13.95Q50.09 14.27 50.09 14.97L50.09 14.97Q50.09 15.80 49.22 16.42Q48.35 17.04 47.15 17.04L47.15 17.04Q46.10 17.04 45.50 16.63Q44.89 16.21 44.89 15.55Z"></path></g><defs data-v-fde0c5aa=""><!----></defs><g data-v-fde0c5aa="" id="0cef55a0-5b4f-40b3-9169-4c09b5d8f872" stroke="none" fill="#746657" transform="matrix(1.7446703508259043,0,0,1.7446703508259043,34.50428822851367,122.08527438678553)"><path d="M16 8.204l7.065 3.915v7.761L16 23.796 8.935 19.88v-7.76L16 8.204m0-1.143l-8.065 4.47v8.939L16 24.939l8.065-4.47V11.53L16 7.061zM27.85 1v3.356H4.15V1h23.7m1-1H3.15v5.356h25.7V0zM27.85 27.644V31H4.15v-3.356h23.7m1-1H3.15V32h25.7v-5.356z"></path></g><!----></svg>